<?xml version="1.0" encoding="UTF-8"?>
<svg version="1.1" viewBox="0 0 209 18" xmlns="http://www.w3.org/2000/svg">
<title>Combined Shape</title>
<g fill="none" fill-rule="evenodd">
<g transform="translate(-32 -23)" fill="#fff" fill-rule="nonzero">
<path d="m175.71 36v0.034602c-0.029856 0.0039151-0.060096 0.0039151-0.089952 0-0.15223 0-0.30445 0-0.44976 0.048443s-0.14531 0-0.19374 0.055364h-0.11763c-0.043167-0.02338-0.095219-0.02338-0.13839 0-0.058342 0.029784-0.12168 0.048552-0.18682 0.055364l-0.31137 0.069205h-0.076113l-0.31829 0.055364c-0.10379 0-0.2145 0-0.32521 0.041523-0.11071 0.041523-0.12455 0.034602-0.19374 0.041523l-0.41516 0.083046h-0.083032l0.083032 0.055364-1.114 0.13149c0.11984 0.0069211 0.23997 0.0069211 0.35981 0l1.7022-0.20069 0.78189-0.076125c0.22142 0 0.44284-0.055364 0.69194-0.083046h0.49128l0.44976-0.055364h0.034597l-0.53971 0.069205-0.79573 0.12457-6.49e-4 6.488e-4 -0.040868 0.040874h0.076113c-0.06896 0.030306-0.14083 0.053495-0.2145 0.069205l-0.24218 0.048443h0.041516c0.2742-0.017301 0.54921-0.017301 0.8234 0 0.12282-0.004334 0.24527-0.015888 0.36673-0.034602l0.55355-0.055364 0.50511-0.041523c-0.030361 0.017969-0.062923 0.031926-0.096871 0.041523l-0.29061 0.034602h0.13147l-0.17298 0.048443h0.076113v0.069205l-0.55355 0.096887h0.35981l-0.048436 0.062284c0.26294 0.041523 0.50511-0.096887 0.76805-0.062284l-0.1799 0.041523c-0.19374 0.041523-0.3944 0.076125-0.58123 0.13149-0.2479 0.063518-0.49991 0.10976-0.75421 0.13841-0.14012 0-0.28024 0.046713-0.42035 0.084668l-0.049307 0.011738 0.8433-0.068724-0.69194 0.15225c0.1743 0.023366 0.35087 0.017237 0.52238-0.01773l0.16956-0.044554s-0.034596 0.034602-0.055355 0.034602c-0.047342 6.296e-4 -0.092357 0.02064-0.12455 0.055364-0.038707 0.0088846-0.078923 0.0088846-0.11763 0-0.13147 0.034602-0.26986 0.062284-0.40132 0.10381l0.49128-0.034602-0.1799 0.055364-0.15915 0.089966h0.52587c0.034597 0.083046 0 0.11765-0.089952 0.14533l-0.22834 0.076125h0.38057l-0.14531 0.034602c-0.17373 0.024488-0.34504 0.063848-0.51203 0.11765-0.098864 0.18367-0.22746 0.3497-0.38057 0.49135l-0.40132 0.089966-0.041516 0.034602c0.33201-0.069407 0.67135-0.097302 1.0102-0.083046-0.36641 0.057097-0.72914 0.13566-1.0863 0.2353h0.3944l-0.59507 0.12457-0.35289 0.089966-0.00692 0.0051904-0.048435 0.036332h0.069193l0.55355-0.089966 0.37364-0.055364 0.13839-0.034602v0.034602l-0.69194 0.14533-0.33905 0.096887-0.47744 0.096887c-0.10528 0.018828-0.20928 0.044253-0.31137 0.076125l0.69194-0.089966c0.16606 0 0.32521-0.062284 0.48436-0.089966l0.69194-0.11073c0.022543-0.0069383 0.046651-0.0069383 0.069194 0-0.1311 0.017709-0.26064 0.045473-0.38748 0.083046 0.26986-0.034602 0.52587-0.10381 0.81648-0.12457-0.089952 0.083046-0.19374 0.069205-0.28369 0.089966l-0.78189 0.13841c-0.084279 0.0080555-0.16636 0.031512-0.24218 0.069205-0.17298 0.12457-0.3944 0.083046-0.58123 0.14533l-0.19374 0.069205v0.034602l0.48436-0.076125-0.17298 0.048443 0.51895-0.083046-0.20758 0.041523-0.65042 0.12457-0.41516 0.076125 0.076113-0.048443-0.28456 0.027574-0.084451 0.011268-0.04809 0.021415c-0.093995 0.033205-0.19367 0.047446-0.2932 0.041892l-0.033713-0.0043073-0.10483 0.019755-0.022166 0.0042452c-0.031969 0.013107-0.064403 0.020028-0.097595 0.024245l-0.011405 7.552e-4 -0.14785 0.03309h0.14531l-0.58123 0.083046c-0.03339 0.0047738-0.064657 0.019207-0.089952 0.041523 0.17368 0.033617 0.35219 0.033617 0.52587 0l0.055355 0.096887c-0.048436 0.083046-0.15223 0.069205-0.23526 0.089966h-0.24218l-0.41516 0.041523-0.20066 0.034602c-0.029909 0.0030064-0.060043 0.0030064-0.089952 0-0.21349 0.0089991-0.42615 0.032118-0.63658 0.069205-0.32521 0-0.6435 0.062284-0.96179 0.10381l-0.38748 0.048443h-0.13839l-1.0448 0.11073c-0.56739 0.055364-1.1348 0.11765-1.7091 0.16609-0.42208 0.034602-0.84416 0.055364-1.2732 0.083046-0.10379 0-0.2145 0.041523-0.31829 0.048443l-0.87876 0.041523c-0.18205-0.010689-0.36458-0.010689-0.54663 0-0.19659 0.036311-0.39539 0.05943-0.59507 0.069205-0.4636 0-0.92028 0.089966-1.3839 0.14533-0.24218 0-0.48436 0.055364-0.69194 0.069205-0.18195 0.013784-0.36468 0.013784-0.54663 0-0.13804-0.017009-0.27453-0.044775-0.40824-0.083046-0.03485-0.012521-0.061771-0.040724-0.072661-0.076123s-0.004478-0.07386 0.017306-0.10381c0.030538-0.034002 0.062875-0.066344 0.096872-0.096887 0.062274-0.048443 0.041516-0.10381 0-0.15917-0.041517-0.055364-0.076114-0.096887-0.15915-0.076125h-0.055355c-0.041516-0.069205 0-0.11073 0.069194-0.13841 0.070778-0.035126 0.12707-0.093872 0.15914-0.16609 0.041841-0.080223 0.041841-0.17583 0-0.25606l-0.062274-0.14533c0-0.048443-0.041516-0.089966-0.13839-0.048443 0-0.041523 0-0.069205 0.048435-0.076125 0.048436-0.0069205 0.089952-0.10381 0.11071-0.16609 0.02786-0.040668 0.034825-0.091045 0.020895-0.13657l-0.020895-0.043365c0.035223-0.058083 0.074532-0.11359 0.11763-0.16609 0-0.034602 0.076113-0.048443 0.096871-0.083046 0.020759-0.034602 0-0.069205 0-0.069205s-0.089951-0.048443-0.11071-0.10381c-0.040629-0.10606-0.061727-0.2186-0.062275-0.33218 0.009752-0.095185 0.079523-0.17334 0.17298-0.19377 0.11071 0 0.13147-0.10381 0.20066-0.15225s0-0.048443-0.041516-0.048443-0.11071 0-0.13147-0.041523c-0.020777-0.037748-0.046361-0.072642-0.076113-0.10381 0 0-0.076113 0.055364-0.11071 0l0.36673-0.17301c0.15109-0.063806 0.30894-0.11024 0.47052-0.13841l0.56047-0.11073s0.083033 0 0.062274-0.034602l0.55355-0.076125 0.98255-0.14533 1.0102-0.13149 0.62966-0.083046 1.0656-0.13149 0.50511-0.048443c0.10379 0 0.20758-0.041523 0.30445-0.062284h0.14531l1.0171-0.10381c0.11071 0 0.2145-0.041523 0.32521-0.048443 0.073806-0.0046137 0.15991-0.0030758 0.24602-0.0015379l0.043447-1.458e-4 -0.015786 0.0052338c-0.007159 0.0040508-0.013288 0.0099236-0.017667 0.017211-0.052797 0.052134-0.12763 0.075361-0.20066 0.062284-0.019585 0.0098706-0.04269 0.0098706-0.062275 0l0.12455-0.048443c-0.11546-0.002509-0.23039 0.016258-0.33905 0.055364-0.11302 0.031964-0.2289 0.052824-0.34597 0.062284l-0.59507 0.076125h-0.40824l-0.12455 0.034602c-0.082889 0.0069005-0.16621 0.0069005-0.2491 0l-0.33905 0.034602s-0.048435 0-0.069193 0.048443h-0.048436l-0.089952 0.034602h0.076113l1.0794-0.083046 0.69194-0.069205c0.30445-0.041523 0.6089-0.076125 0.90644-0.12457 0.28023-0.048443 0.56047-0.081316 0.8407-0.109l0.67883-0.063493 0.882-0.077h-0.028l1.6051-0.14498c0.051895 0 0.10379 0 0.14693-0.026276l0.039895-0.036008c0.048435-0.062284 0.062274 0 0.089952 0h0.83724l0.81648-0.076125 0.69194-0.069205c0.0688 0.01044 0.13878 0.01044 0.20758 0 0.22441-0.067919 0.45748-0.10289 0.69194-0.10381 0.16606 0 0.33213 0 0.49128-0.034602h0.20066zm-43.09-11.989c1.629-0.090715 3.2385 0.37567 4.5372 1.3148 1.0996 0.93222 1.6928 2.2897 1.6115 3.6881 0.039195 1.1259-0.3133 2.2327-1.0029 3.149-0.67944 0.81098-1.6195 1.3882-2.6767 1.6435l3.9078 5.1804h-1.5424l-3.6242-4.9503c-0.40376 0.04771-0.81044 0.069673-1.2173 0.065741h-4.3435v4.8977h-1.2726v-14.989zm-64.192-0.011124v10.281l9.4969-10.281h0.59988l-6.2482 6.7392 6.72 8.2608h-0.57966l-6.4436-7.9376-3.5453 3.8375v4.1001h-0.43137v-15h0.43137zm152.27 0v1.1974h-9.3752v5.5132h8.3399v1.2237h-8.3399v5.8684h9.6699v1.1974h-11v-15h10.705zm13.91 0.011388c1.633-0.091888 3.2465 0.37461 4.5477 1.3148 1.1047 0.93094 1.7019 2.2885 1.6222 3.688 0.040422 1.1271-0.31565 2.2349-1.0121 3.1489-0.67922 0.80977-1.6189 1.3869-2.6759 1.6435l3.9029 5.1803h-1.5459l-0.055459-0.072314-3.5425-4.8779c-0.40466 0.048067-0.8123 0.070031-1.2201 0.06574h-4.3466v4.8976h-1.2894v-14.989zm-47.12-0.011388 6.0344 11.362 5.9947-11.362h1.4755v15h-1.1645l-0.01985-12.934-6.0146 11.342h-0.58227l-6.0344-11.342v12.934h-1.1844v-15h1.4954zm-91.777 0v0.43088h-8.3178v6.6315h7.404v0.43088h-7.404v7.0826h8.5994v0.42415h-9v-15h8.7184zm52.282 0v15h-2v-15h2zm-115.52 0v14.576h7.5179v0.42415h-8v-15h0.48211zm78.633 2.169e-4c1.3828-0.010128 2.7444 0.33459 3.9495 0.99997 1.1854 0.63626 2.1779 1.5692 2.8766 2.7039 1.4113 2.3342 1.4113 5.238 0 7.5722-0.69728 1.1455-1.6954 2.0861-2.89 2.7236-1.2078 0.66478-2.5713 1.0094-3.9562 0.99997h-6.0953v-15zm-64.616-2.169e-4v8.9572c-0.10435 1.5274 0.52056 3.0263 1.7345 4.1604 1.2864 1.0322 3.0219 1.5661 4.7917 1.4739 1.7565 0.083574 3.4759-0.4497 4.7521-1.4739 1.2025-1.1384 1.8158-2.6368 1.7028-4.1604v-8.9572h0.50689v8.9572c0.11532 1.631-0.54645 3.2331-1.8375 4.4485-1.3865 1.1071-3.2529 1.6794-5.1561 1.5811-1.8999 0.10839-3.7685-0.45159-5.164-1.5476-1.2276-1.0518-1.8296-2.5458-1.8296-4.482v-8.9572h0.49897zm64.596 1.1974h-4.848v12.605h4.8682c1.1568 0.018286 2.2977-0.26553 3.3058-0.82235 0.98485-0.54911 1.8092-1.3375 2.3938-2.2894 0.5876-0.94938 0.89408-2.0406 0.88512-3.1512 0.01077-1.1192-0.29567-2.2193-0.88512-3.1775-1.2012-1.9738-3.3766-3.1773-5.7197-3.1645zm67.069 4.9586h0.48199l0.35396 0.054602-0.075311 0.093604 0.037655 0.046802h-0.30878c0.012349 0.0033026 0.025306 0.0033026 0.037656 0l0.11297 0.070203-0.33137 0.046802h0.13556c-0.060248 0.093604-0.18828 0.062402-0.28618 0.093604h-0.18075l-0.41421 0.085803 0.13556 0.054602c-0.060249 0.117-0.241 0.070203-0.37656 0.13261 0.1003-0.0069413 0.20094-0.0069413 0.30124 0 0.12865 0.005261 0.2569 0.018284 0.38409 0.039002l-0.48199 0.093604c0.22593 0.1248 0.51212 0 0.75311 0.070203h-0.090373l-0.47446 0.070203-1.1146 0.14041c-0.12803 0-0.25606 0.062402-0.41421 0.1014h2.0259l-0.61755 0.054602 0.41421 0.039002h0.015062l-0.28618 0.070203 0.18075 0.054602-0.29371 0.1014c0.045186 0.070203 0 0.093604-0.082842 0.1092-0.082843 0.015601-0.16568 0-0.20334 0.078003h0.16568c0.096143-0.027202 0.19757-0.027202 0.29371 0h0.30878l-0.037656 0.046802-0.86608 0.18721c-0.019492 0.0071377-0.040757 0.0071377-0.060249 0-0.13445 0.021115-0.26769 0.049758-0.39915 0.085804-0.052717 0-0.14309 0-0.21087 0.046802-0.06778 0.046802-0.13556 0-0.12803 0.078003h-0.075312c-0.048716 0.012035-0.096536 0.027676-0.14309 0.046802h0.22593c0.075311 0 0.15062 0 0.22593-0.054602l0.052718 0.039002-0.10544 0.062402h0.075311l-0.42174 0.1092c-0.1264 0.020674-0.24563 0.074365-0.34643 0.15601-0.024364 0.0089221-0.050946 0.0089221-0.075311 0-0.1683 0.0045999-0.33431 0.041633-0.48952 0.1092-0.054032 0.010369-0.10699 0.02604-0.15815 0.046802h0.075311c0.067728 0.0038872 0.13561 0.0038872 0.20334 0h0.22593l0.36149-0.046802-0.045186 0.070203h0.48952l-0.49705 0.085803-0.56483 0.070203-0.1205 0.039002h-0.06778l-0.92633 0.1092h-0.3389c-0.097904 0-0.18828 0.054602-0.28618 0.062402-0.47446 0.062402-0.94139 0.117-1.4234 0.14041-0.30878 0-0.61755 0.054602-0.92633 0.078003l-0.94139 0.070203-0.95645 0.093604-1.2803 0.1248c-0.17322 0-0.35396 0.046802-0.53471 0.046802-0.33137 0-0.63261 0.14041-0.96398 0.14041v0.1014c-0.24853 0-0.49705 0.039002-0.75311 0.070203-0.23182 0.01356-0.46157 0.052786-0.68533 0.117-0.17272 0.048837-0.34905 0.082754-0.52718 0.1014-0.17322 0.039002-0.36902 0.039002-0.54977 0.070203-0.18075 0.031201-0.27865 0.054602-0.42927 0.085803l0.045186-0.054602h-0.1205l-0.75311 0.070203-0.18828 0.039002c-0.15062 0-0.30124 0.046802-0.45187 0.054602-0.22673 0.01488-0.45136 0.054092-0.67027 0.117-0.16667 0.029084-0.33559 0.042141-0.50458 0.039002h-0.22593l-0.8962 0.046802-0.44434 0.062402h-0.25606l0.082842-0.070203c-0.61624-0.044803-1.2355 0.0051401-1.8376 0.14821l0.060249-0.078003-1.0468 0.17941c0.16348-0.067158 0.33232-0.11936 0.50458-0.15601 0.1975-0.02231 0.39362-0.056165 0.58743-0.1014l0.68533-0.17161c0.065903-0.020538 0.12913-0.049354 0.18828-0.085803-0.38409-0.039002-0.75311 0.14041-1.1523 0.117 0-0.054602 0-0.070203 0.075311-0.078003l0.66274-0.070203 0.35396-0.062402c0.070092-0.0077434 0.14078-0.0077434 0.21087 0h0.39162c0.11297 0 0.1205-0.062402 0.1205-0.117s-0.06778-0.062402-0.1205-0.062402h0.38409l0.22593-0.046802 0.21087-0.039002 0.87361-0.078003 0.27112-0.039002h-0.12803l-0.75311 0.062402-1.6644 0.15601h-0.4368c0.15815-0.062402 0.35396 0 0.50458-0.093604h-0.18828c-0.25606 0-0.5071 0.031201-0.75311 0.093604l-0.65521 0.1014-0.15787 0.012712-0.088012 0.014115 0.14045-0.042428-0.18828 0.046802-0.15062-0.039002c0.045186-0.070203 0.15815-0.078003 0.25606-0.1014l0.30878-0.070203c-0.047373-0.0081467-0.095719-0.0081467-0.14309 0h-0.11297c-0.005288-0.025713-0.005288-0.05229 0-0.078003 0 0-0.075311-0.078003-0.18075 0l-0.16568-0.17161h-0.11297c-0.042364-0.0075694-0.085666-0.0075694-0.12803 0h-0.037656l-0.21087-0.054602 0.34643-0.085803h-0.1205l0.35396-0.21061h-0.26359l0.5573-0.1248c-0.042599-0.003764-0.08543-0.003764-0.12803 0l-0.20334 0.054602-0.28618 0.070203h-0.20334c0.26162-0.035924 0.50754-0.14973 0.70792-0.32761l0.24853-0.039002c-0.10328-0.031201-0.21302-0.031201-0.31631 0-0.10362 0.032761-0.20439 0.07451-0.30124 0.1248v-0.070203h-0.30124c-0.0248 0.0057208-0.050512 0.0057208-0.075312 0l-0.10544-0.117h0.23346l-0.090373-0.046802c0.035073-0.019959 0.073346-0.033173 0.11297-0.039002h0.015062c0.055308-0.035806 0.11322-0.067102 0.17322-0.093604 0.066201-0.028048 0.13413-0.051501 0.20334-0.070203-0.06778-0.046802-0.037655-0.117 0.06778-0.14041h0.10544c0.090833 0.0097837 0.17795-0.040001 0.2184-0.1248h-0.36149s0-0.054602 0.06778-0.070203c0.075996-0.035879 0.15395-0.067134 0.23346-0.093604 0.52465-0.1419 1.0624-0.22557 1.6041-0.24961 0.20196-0.01141 0.40312-0.03485 0.60249-0.070203 0.25606-0.039002 0.50458-0.1092 0.75311-0.16381 0.46693-0.085803 0.92633-0.18721 1.4008-0.24181l1.2276-0.16381 0.61002-0.054602 0.75311-0.1092 0.44434-0.070203 0.88867-0.13261c0.12525-0.011974 0.2513-0.011974 0.37656 0l-0.18075 0.039002c0.079953 0.011432 0.16104 0.011432 0.241 0l0.75311-0.085803 0.48952-0.039002h0.090373c0.30005-0.068198 0.60469-0.11253 0.91126-0.13261l0.70792-0.1014 0.96398-0.093604c0.037572-0.0036645 0.075394-0.0036645 0.11297 0 0.16251-5.515e-4 0.32435-0.021505 0.48199-0.062402 0.11844-0.063299 0.25098-0.092908 0.38409-0.085803 0.065065-0.0082279 0.12855-0.026638 0.18828-0.054602l-0.13556-0.054602 0.39162-0.070203c0.060031-0.0075155 0.12072-0.0075155 0.18075 0 0.090017 0.011746 0.1811 0.011746 0.27112 0 0.15815-0.046802 0.29371 0 0.44434 0 0.15183-0.027169 0.30537-0.042811 0.4594-0.046802h1.9204l-0.060249 0.078003h0.39915c0.13967-0.023448 0.28207-0.023448 0.42174 0 0.047395 0.0078717 0.095697 0.0078717 0.14309 0h0.94139c0.037655 0.042902 0.086607 0.042902 0.13838 0.032176l0.10481-0.026218c0.017259-0.0035751 0.034204-0.0059586 0.050521-0.0059586 0.085198 0.007528 0.17086 0.007528 0.25606 0h0.39915l0.58743-0.046802h0.22593l-0.17105-0.28602 0.078227 4.75e-5c0.11132 0.0021598 0.22262 0.0064794 0.33382 0.012959zm-45.25-4.9718-0.27673 0.010231h-4.3643v7.718h4.3712c1.2948 0.07897 2.5776-0.27705 3.6242-1.0058 0.85886-0.73228 1.3176-1.7981 1.245-2.8926 0.071396-1.0766-0.39193-2.1229-1.2519-2.8268-1.0505-0.72009-2.3316-1.071-3.6242-0.99268zm102.01-3.28e-4 -0.27699 0.010802h-4.3744v7.7112h4.3744c1.2954 0.077405 2.5785-0.27853 3.6256-1.0058 0.86341-0.73101 1.3258-1.797 1.2548-2.8925 0.07047-1.0698-0.39373-2.1156-1.2548-2.8202-1.049-0.72262-2.3319-1.0739-3.6256-0.99267zm-57.253 4.8161 0.085006 0.143-0.25577 4.75e-5 -0.33382 0.012959c-0.23346 0.046802-0.47446 0.046802-0.70792 0.046802 0.10714-0.044506 0.21808-0.078458 0.33137-0.1014l0.88114-0.1014zm-3.0442-6.6749c0 0.056534 0 0.077734 0.078292 0.077734 0.032407-0.010281 0.067236-0.010281 0.099644 0 0.24832 0.05232 0.50076 0.083059 0.75445 0.091868 0.17082 0 0.34164 0.049467 0.52669 0.070667-0.042705 0.070667 0 0.091868 0.056939 0.11307 0.060586 0.022936 0.11997 0.04888 0.17794 0.077734l0.23488 0.056534c0 0.0424 0 0.056534-0.085409 0.056534h-0.6121l0.46975 0.1484 0.3274 0.070667 0.035587 0.0424v0.056534l-0.14235 0.0424 0.45552 0.12013c-0.05694 0.077734-0.12811 0.063601-0.19929 0.063601h-0.19217v0.077734h-0.17794c0 0.049467 0 0.049467 0.14947 0.056534h0.19929l-0.078291 0.049467h0.071174l-0.55516 0.106h-0.4911l0.61922 0.049467-0.24911 0.20494h0.13523l-0.51246 0.056534h0.24199l-1.0961 0.063601c0.07928 0.035071 0.16983 0.035071 0.24911 0 0.033118-0.0035619 0.066526-0.0035619 0.099644 0h0.81139c-0.071174 0.077734-0.17082 0.049467-0.26334 0.084801l0.10676 0.035334h-0.099644l0.29182 0.035334 0.049822 0.077734-0.24199 0.070667h-0.042704s-0.049822 0.0424-0.085409 0.049467h0.056939v0.0424l0.12811 0.0424-0.11388 0.1272c0.085409 0.084801 0.22064 0.070667 0.34164 0.098934 0.047503 0.0090198 0.093189 0.025732 0.13523 0.049467l-0.17082 0.077734h0.1637l-0.21352 0.0424v0.62187h-0.071175l0.1637 0.0052857 0.1637-0.0052857-0.54804 0.11307 0.48398 0.0424-0.71174 0.098934h0.056939l-0.35587 0.056534c-0.23488 0-0.46263 0.0636-0.71174 0.084801h-0.43416l-0.41281 0.049467h-0.14947c-0.052163 0.002535-0.10442 0.002535-0.15658 0l-1.3594 0.13427-1.3096 0.091867c-0.1794 9.364e-4 -0.35824 0.019877-0.53381 0.056534-0.11377 0.0069114-0.22786 0.0069114-0.34164 0l-1.4235 0.16253-1.0605 0.12013-1.637 0.13427-1.0747 0.12013h-0.35587l-0.74733 0.13427-0.3274 0.0636c-0.037851-0.0040317-0.076028-0.0040317-0.11388 0-0.029383 0.023068-0.05362 0.051945-0.071174 0.084801 0.037583 0.022464 0.078379 0.039142 0.121 0.049467h0.50534c0.09501 0.0017977 0.18865-0.022669 0.27046-0.070667 0.042016-0.010771 0.086098-0.010771 0.12811 0h0.37011l0.007117 0.28974c-0.14235 0-0.30605 0-0.42705 0.106l0.28444-5.131e-4 -0.71149 0.10651h-0.22776c-0.049696 0.012701-0.097539 0.031702-0.14235 0.056534h0.049822c-0.10682 0.023329-0.20825 0.066486-0.29893 0.1272l-0.092526 0.049467c-0.024332 0.015804-0.043985 0.037756-0.05694 0.063601l0.049822 0.049467c0.049822 0.049467 0.05694 0 0.071175 0.049467 0.010676 0.0371 0.005338 0.0424 0.002001 0.042732l-0.13012-3.313e-4 -0.17082-0.0636 0.13311-0.21205 0.030706-9.451e-4c0.033696-0.0029813 0.060387-0.014906 0.071063-0.062607 0.014235-0.0636 0-0.084801-0.08541-0.1272l0.25623-0.1696-0.48399 0.0424-0.60498 0.035334c-0.042645 0.0031581-0.085468 0.0031581-0.12811 0-0.24199 0-0.47687 0.049467-0.71174 0.063601l-1.089 0.0424h-0.39858c0.053232-0.087002 0.1397-0.14718 0.23777-0.16832l0.075393-0.0083487h-0.19217l0.092526-0.084801h-0.19217l0.035588-0.11307h-0.099645v-0.14133l0.51957-0.21907h-0.14235c-0.072332 0.0067098-0.14193-0.029222-0.17794-0.091867-0.017554-0.032856-0.041791-0.061733-0.071175-0.084801 0.025623 0 0.046121-0.03816 0.084555-0.062583l0.037819-0.01519-0.008495 3.88e-5 0.078292-0.077734h-0.79715v-0.0212l0.46263-0.098934-0.071175-0.0424 0.35587-0.070667v-0.0070667h-0.035587s-0.05694 0-0.05694-0.0424 0-0.1272-0.1637-0.1272c-0.060351 0.0028988-0.11652-0.030565-0.14235-0.084801l0.19929-0.049467h-0.24199l-0.042705-0.091867 0.1637-0.056534c0-0.056534-0.078291-0.11307-0.056939-0.1484 0.014235-0.023556 0.053776-0.047112 0.093317-0.072761l0.018932-0.013603 0.058569-0.01257 0.083501-0.01401c0.032993-0.0061808-0.011309-0.0061808-0.026561-0.056658-0.021352-0.070667 0-0.0636 0.056939-0.084801 0.05694-0.0212 0.05694-0.049467 0.092527-0.070667-0.099644-0.056534-0.099644-0.098934 0-0.14133l0.4484-0.16253h-0.17794v-0.18373h0.078292c-0.16692-0.031868-0.33842-0.031868-0.50534 0-0.08186 0.0359-0.17745 0.019151-0.24199-0.0424h-0.29893c-0.028135 0.0061284-0.057274 0.0061284-0.085409 0 0 0 0.035587 0 0.064057-0.0424l0.57651-0.12013c0.10676 0 0.22064 0 0.33452-0.0424 0.11388-0.0424 0.10676 0 0.085409-0.106-0.27898 0.04244-0.56053 0.065029-0.84251 0.067646l-0.28204-0.0040451 0.27758-0.0424h0.13523l0.6121-0.0636h0.064057s0.10676-0.091867 0.18505-0.106l0.34876-0.049467c0.24199-0.0424 0.49822-0.070667 0.71174-0.13427 0.23545-0.040125 0.47314-0.066084 0.71174-0.077734l0.71174-0.0636c0.092527 0 0.18505-0.056534 0.27758-0.077734l0.61922-0.13427-0.4484 0.0424-0.8968 0.070667-0.7758 0.0636c-0.054338 0.0070301-0.10936 0.0070301-0.1637 0h-0.042705c-0.28252 0.048053-0.56776 0.078734-0.85409 0.091868h-1.1174v-0.22614h0.51957l-0.51957-0.056534 0.29893-0.049467h0.31317c0-0.091867 0.10676-0.070667 0.1637-0.084801 0.095469-0.028659 0.19303-0.049923 0.29182-0.0636 0.14947 0 0.30605-0.056534 0.46263-0.070667s0.43416-0.049467 0.6548-0.0636c0.22064-0.014134 0.26334 0 0.39146 0l0.4484-0.049467 0.53381-0.056534 0.42705-0.077734 0.37011-0.063601c0.042704 0 0.11388-0.049467 0.14235 0l0.31317-0.035334h0.13523c0.078292 0 0.14947-0.0424 0.22064-0.049467 0.064008-0.0035216 0.12816-0.0035216 0.19217 0h0.38434l0.71174-0.070667c0.14947 0 0.29182-0.049467 0.43416-0.0636 0.14235-0.014134 0.31317 0 0.46263-0.035334l0.6548-0.070667h0.13523c0.064057 0 0.121 0.056534 0.19929 0h0.2847c0.077384-0.0089474 0.15368-0.025518 0.22776-0.049467 0.071175 0 0.13523-0.035334 0.19929 0 0.018307 0.0070955 0.038632 0.0070955 0.056939 0h0.25623l0.64057-0.098934 0.61922-0.049467c0.22064 0 0.43416-0.0424 0.64769-0.0636h0.51957l0.31317-0.049467h0.078292l0.56228-0.049467c0.092527 0 0.17794-0.0424 0.27046-0.049467h0.74021l-0.12811 0.106c0.43772 0 0.86343-0.059626 1.2891-0.10136l0.42616-0.032904h-0.19929c-0.068629 0.0068484-0.13778 0.0068484-0.2064 0h0.064057c0.079715 0 0.14576 0 0.18722-0.054272l0.025352-0.051798 0.050776 6.94e-5zm-0.57651 2.5016c-0.035587 0-0.056939 0.056534-0.092526 0.0636-0.044781 0.0072538-0.090451 0.0072538-0.13523 0l-0.85409 0.106-0.34876 0.084801h0.22064l0.57651-0.049467h0.34164c0.24446 0.022182 0.49042-0.021774 0.71174-0.1272h-0.1637l0.17082-0.0424-0.42705-0.035334zm0.53074-0.37369-2.1393 0.21116h0.37722l0.84698-0.070667c0.15318-0.025047 0.30945-0.025047 0.46263 0h0.05694c-0.023249 0.0066746-0.047926 0.0066746-0.071175 0l-0.24232-4.887e-4 0.093537 0.030339c0.12344 0.0199 0.24416-0.02985 0.36942-0.02985-0.042705-0.056534 0-0.070667 0.056939-0.077734h0.064057l0.064936-0.039046 0.060107-0.023708zm-0.11081-0.41778h-0.44128l-0.99644 0.070667-0.2847 0.056534 0.078292 0.0636-1.3737 0.11307c0.077936 0.010475 0.15694 0.010475 0.23488 0l1.331-0.077734h0.45552c0.27046 0 0.54092-0.056534 0.81139-0.091868 0.064921-0.01043 0.12753-0.031949 0.18505-0.0636v-0.070667zm0.22776-0.69961-1.3025 0.070667c-0.11388 0-0.22776 0.018845-0.34164 0.039783l-0.17082 0.030884h1.5943c0.039152-0.017255 0.079609-0.031432 0.121-0.0424l0.20641-0.0636v-0.035334c-0.035515-0.0031994-0.071248-0.0031994-0.10676 0zm0.41993-1.3356c0.23483 0.041797 0.47321 0.060732 0.71174 0.056534l0.072594 0.012028 0.069755 0.023306h-0.46263c0 0.049467-0.056939 0.056534-0.10676 0.056534l-0.71858 0.060599 0.043008-0.038423c0.1122-0.088865 0.24664-0.14822 0.39087-0.17058z"/>
</g>
</g>
</svg>
